<svg id="globe" xmlns="http://www.w3.org/2000/svg" width="16.86" height="16.86" viewBox="0 0 16.86 16.86">
  <g id="Group_34986" data-name="Group 34986" transform="translate(5.481)">
    <g id="Group_34985" data-name="Group 34985">
      <path id="Path_198" data-name="Path 198" d="M167.894.116a18.4,18.4,0,0,0-1.457,3.98,13.494,13.494,0,0,0,2.455.316V0A8.506,8.506,0,0,0,167.894.116Z" transform="translate(-166.437)" fill="#949494"/>
    </g>
  </g>
  <g id="Group_34988" data-name="Group 34988" transform="translate(8.925 5.065)">
    <g id="Group_34987" data-name="Group 34987">
      <path id="Path_199" data-name="Path 199" d="M273.687,153.811a14.463,14.463,0,0,1-2.66.337v2.533h2.96A18.565,18.565,0,0,0,273.687,153.811Z" transform="translate(-271.027 -153.811)" fill="#949494"/>
    </g>
  </g>
  <g id="Group_34990" data-name="Group 34990" transform="translate(8.925)">
    <g id="Group_34989" data-name="Group 34989">
      <path id="Path_200" data-name="Path 200" d="M272.023.116a8.508,8.508,0,0,0-1-.116V4.412A13.469,13.469,0,0,0,273.48,4.1,18.423,18.423,0,0,0,272.023.116Z" transform="translate(-271.026)" fill="#949494"/>
    </g>
  </g>
  <g id="Group_34992" data-name="Group 34992" transform="translate(8.925 12.448)">
    <g id="Group_34991" data-name="Group 34991">
      <path id="Path_201" data-name="Path 201" d="M271.026,378.018v4.412a8.515,8.515,0,0,0,1-.116,18.357,18.357,0,0,0,1.459-3.98A13.47,13.47,0,0,0,271.026,378.018Z" transform="translate(-271.026 -378.018)" fill="#949494"/>
    </g>
  </g>
  <g id="Group_34994" data-name="Group 34994" transform="translate(12.547 8.925)">
    <g id="Group_34993" data-name="Group 34993">
      <path id="Path_202" data-name="Path 202" d="M381.344,271.026a19.607,19.607,0,0,1-.328,3.119,14.347,14.347,0,0,1,2.835,1.184,8.367,8.367,0,0,0,1.479-4.3Z" transform="translate(-381.015 -271.026)" fill="#949494"/>
    </g>
  </g>
  <g id="Group_34996" data-name="Group 34996" transform="translate(5.479 12.448)">
    <g id="Group_34995" data-name="Group 34995">
      <path id="Path_203" data-name="Path 203" d="M166.366,378.334a18.352,18.352,0,0,0,1.459,3.98,8.5,8.5,0,0,0,1,.116v-4.412A13.471,13.471,0,0,0,166.366,378.334Z" transform="translate(-166.366 -378.018)" fill="#949494"/>
    </g>
  </g>
  <g id="Group_34998" data-name="Group 34998" transform="translate(4.975 5.064)">
    <g id="Group_34997" data-name="Group 34997">
      <path id="Path_204" data-name="Path 204" d="M151.377,153.781a18.558,18.558,0,0,0-.3,2.871h2.96V154.12A14.484,14.484,0,0,1,151.377,153.781Z" transform="translate(-151.076 -153.781)" fill="#949494"/>
    </g>
  </g>
  <g id="Group_35000" data-name="Group 35000" transform="translate(0 3.632)">
    <g id="Group_34999" data-name="Group 34999">
      <path id="Path_205" data-name="Path 205" d="M1.479,110.29A8.367,8.367,0,0,0,0,114.594H3.985a19.55,19.55,0,0,1,.33-3.12A14.372,14.372,0,0,1,1.479,110.29Z" transform="translate(0 -110.29)" fill="#949494"/>
    </g>
  </g>
  <g id="Group_35002" data-name="Group 35002" transform="translate(2.098 13.016)">
    <g id="Group_35001" data-name="Group 35001">
      <path id="Path_206" data-name="Path 206" d="M66.139,395.246a13.328,13.328,0,0,0-2.423,1,8.43,8.43,0,0,0,3.589,2.4A19.335,19.335,0,0,1,66.139,395.246Z" transform="translate(-63.716 -395.246)" fill="#949494"/>
    </g>
  </g>
  <g id="Group_35004" data-name="Group 35004" transform="translate(2.099 0.439)">
    <g id="Group_35003" data-name="Group 35003">
      <path id="Path_207" data-name="Path 207" d="M63.725,15.721a13.383,13.383,0,0,0,2.425,1,19.4,19.4,0,0,1,1.166-3.406A8.429,8.429,0,0,0,63.725,15.721Z" transform="translate(-63.725 -13.317)" fill="#949494"/>
    </g>
  </g>
  <g id="Group_35006" data-name="Group 35006" transform="translate(0 8.925)">
    <g id="Group_35005" data-name="Group 35005">
      <path id="Path_208" data-name="Path 208" d="M3.985,271.026H0a8.367,8.367,0,0,0,1.479,4.3,14.346,14.346,0,0,1,2.835-1.184A19.6,19.6,0,0,1,3.985,271.026Z" transform="translate(0 -271.026)" fill="#949494"/>
    </g>
  </g>
  <g id="Group_35008" data-name="Group 35008" transform="translate(11.171 0.439)">
    <g id="Group_35007" data-name="Group 35007">
      <path id="Path_209" data-name="Path 209" d="M339.232,13.316a19.435,19.435,0,0,1,1.165,3.407,13.328,13.328,0,0,0,2.426-1A8.43,8.43,0,0,0,339.232,13.316Z" transform="translate(-339.232 -13.316)" fill="#949494"/>
    </g>
  </g>
  <g id="Group_35010" data-name="Group 35010" transform="translate(11.173 13.016)">
    <g id="Group_35009" data-name="Group 35009">
      <path id="Path_210" data-name="Path 210" d="M340.455,395.246a19.339,19.339,0,0,1-1.166,3.406,8.43,8.43,0,0,0,3.589-2.4A13.326,13.326,0,0,0,340.455,395.246Z" transform="translate(-339.289 -395.246)" fill="#949494"/>
    </g>
  </g>
  <g id="Group_35012" data-name="Group 35012" transform="translate(4.975 8.925)">
    <g id="Group_35011" data-name="Group 35011">
      <path id="Path_211" data-name="Path 211" d="M151.069,271.026a18.61,18.61,0,0,0,.3,2.871,14.46,14.46,0,0,1,2.662-.337v-2.533Z" transform="translate(-151.069 -271.026)" fill="#949494"/>
    </g>
  </g>
  <g id="Group_35014" data-name="Group 35014" transform="translate(12.545 3.632)">
    <g id="Group_35013" data-name="Group 35013">
      <path id="Path_212" data-name="Path 212" d="M383.789,110.293a14.346,14.346,0,0,1-2.837,1.185,19.542,19.542,0,0,1,.33,3.119h3.985A8.368,8.368,0,0,0,383.789,110.293Z" transform="translate(-380.952 -110.293)" fill="#949494"/>
    </g>
  </g>
  <g id="Group_35016" data-name="Group 35016" transform="translate(8.925 8.925)">
    <g id="Group_35015" data-name="Group 35015">
      <path id="Path_213" data-name="Path 213" d="M271.026,271.026v2.533a14.46,14.46,0,0,1,2.661.337,18.61,18.61,0,0,0,.3-2.871Z" transform="translate(-271.026 -271.026)" fill="#949494"/>
    </g>
  </g>
</svg>
