<svg xmlns="http://www.w3.org/2000/svg" width="15" height="11.786" viewBox="0 0 15 11.786">
  <path id="mail" d="M788.8,7302.4q-2.746,1.857-4.169,2.888-.477.352-.774.548a4.855,4.855,0,0,1-.791.4,2.421,2.421,0,0,1-.921.2h-.017a2.421,2.421,0,0,1-.921-.2,4.836,4.836,0,0,1-.791-.4q-.3-.2-.774-.548-1.13-.829-4.16-2.888a4.436,4.436,0,0,1-.845-.729v6.646a1.343,1.343,0,0,0,1.339,1.339H788.3a1.343,1.343,0,0,0,1.339-1.339v-6.646a4.621,4.621,0,0,1-.837.729Zm.439-4.135a1.293,1.293,0,0,0-.942-.394H775.978a1.2,1.2,0,0,0-.992.435,1.691,1.691,0,0,0-.347,1.088,1.952,1.952,0,0,0,.46,1.142,4.145,4.145,0,0,0,.979.967q.284.2,1.716,1.193t2.193,1.527l.356.255q.272.2.452.318t.435.271a2.5,2.5,0,0,0,.481.227,1.327,1.327,0,0,0,.419.075h.017a1.327,1.327,0,0,0,.419-.075,2.505,2.505,0,0,0,.481-.227q.255-.15.435-.271t.452-.318q.272-.2.356-.255l3.917-2.72a3.985,3.985,0,0,0,1.021-1.03,2.21,2.21,0,0,0,.41-1.264A1.283,1.283,0,0,0,789.241,7298.267Z" transform="translate(-774.639 -7297.874)" fill="#949494"/>
</svg>
