<svg xmlns="http://www.w3.org/2000/svg" width="13.16" height="19.739" viewBox="0 0 13.16 19.739">
  <path id="marker" d="M784.139,7352.576a3.291,3.291,0,1,1,2.326-.964A3.17,3.17,0,0,1,784.139,7352.576Zm4.652-7.942a6.58,6.58,0,0,0-11.232,4.652,5.406,5.406,0,0,0,.424,2.3l4.691,9.947a1.484,1.484,0,0,0,.6.668,1.663,1.663,0,0,0,1.735,0,1.563,1.563,0,0,0,.61-.668l4.678-9.947a5.408,5.408,0,0,0,.424-2.3A6.34,6.34,0,0,0,788.791,7344.634Z" transform="translate(-777.559 -7342.707)" fill="#949494"/>
</svg>
