<svg xmlns="http://www.w3.org/2000/svg" width="14.214" height="14.214" viewBox="0 0 14.214 14.214">
  <path id="phone" d="M790.823,7269.816q-.061-.182-.767-.535-.192-.111-.545-.3c-.236-.128-.449-.245-.641-.354s-.372-.212-.54-.312c-.027-.021-.111-.079-.252-.177a2.787,2.787,0,0,0-.358-.217.65.65,0,0,0-.288-.071.841.841,0,0,0-.5.288,4.869,4.869,0,0,0-.555.626,6.031,6.031,0,0,1-.535.626.769.769,0,0,1-.464.287.69.69,0,0,1-.227-.05c-.091-.034-.16-.062-.207-.086s-.128-.07-.242-.142-.178-.109-.192-.116a10.009,10.009,0,0,1-4.129-4.129c-.007-.014-.045-.077-.116-.191s-.118-.2-.141-.243a2.2,2.2,0,0,1-.086-.206.683.683,0,0,1-.05-.228.765.765,0,0,1,.288-.464,5.913,5.913,0,0,1,.626-.534,5.05,5.05,0,0,0,.626-.557.84.84,0,0,0,.288-.5.658.658,0,0,0-.071-.288,2.9,2.9,0,0,0-.217-.358c-.1-.141-.156-.226-.177-.252-.1-.168-.205-.349-.313-.54s-.226-.405-.353-.641-.229-.418-.3-.546q-.353-.706-.535-.768a.584.584,0,0,0-.212-.029,3.324,3.324,0,0,0-.712.1,4.088,4.088,0,0,0-.691.212,2.712,2.712,0,0,0-1.07,1.231,3.916,3.916,0,0,0-.515,1.878,3.876,3.876,0,0,0,.035.529,4.352,4.352,0,0,0,.126.581q.091.322.146.479c.037.1.106.292.207.561s.161.435.182.5a9.161,9.161,0,0,0,.838,1.767,16.964,16.964,0,0,0,4.846,4.846,9.171,9.171,0,0,0,1.767.838q.091.029.495.182t.56.207q.156.056.48.146a4.364,4.364,0,0,0,.58.127,3.747,3.747,0,0,0,2.408-.479,2.705,2.705,0,0,0,1.232-1.07,4.018,4.018,0,0,0,.212-.691,3.341,3.341,0,0,0,.1-.712.571.571,0,0,0-.03-.212Z" transform="translate(-776.639 -7258.802)" fill="#949494"/>
</svg>
