<svg xmlns="http://www.w3.org/2000/svg" width="15.591" height="17.418" viewBox="0 0 15.591 17.418">
  <g id="user_4_" data-name="user (4)" transform="translate(-24.165)">
    <g id="Group_34970" data-name="Group 34970" transform="translate(27.439)">
      <g id="Group_34969" data-name="Group 34969">
        <path id="Path_193" data-name="Path 193" d="M115.313,0a4.522,4.522,0,1,0,4.522,4.522A4.534,4.534,0,0,0,115.313,0Z" transform="translate(-110.791)" fill="#949494"/>
      </g>
    </g>
    <g id="Group_34972" data-name="Group 34972" transform="translate(24.165 9.368)">
      <g id="Group_34971" data-name="Group 34971">
        <path id="Path_194" data-name="Path 194" d="M39.723,251.131a4.218,4.218,0,0,0-.454-.829,5.621,5.621,0,0,0-3.89-2.449.832.832,0,0,0-.573.138,4.82,4.82,0,0,1-5.688,0,.741.741,0,0,0-.573-.138,5.58,5.58,0,0,0-3.89,2.449,4.863,4.863,0,0,0-.454.829.42.42,0,0,0,.02.375,7.877,7.877,0,0,0,.533.79,7.506,7.506,0,0,0,.908,1.027,11.834,11.834,0,0,0,.908.79,9.006,9.006,0,0,0,10.743,0,8.681,8.681,0,0,0,.908-.79,9.119,9.119,0,0,0,.908-1.027,6.926,6.926,0,0,0,.533-.79A.337.337,0,0,0,39.723,251.131Z" transform="translate(-24.165 -247.841)" fill="#949494"/>
      </g>
    </g>
  </g>
</svg>
